<svg xmlns="http://www.w3.org/2000/svg"><defs><font id="alethia_proregular" horiz-adv-x="1206"><font-face units-per-em="2048" ascent="1536" descent="-512"/><glyph unicode="ﬁ" horiz-adv-x="1226" d="M852 0v907H418V0H217v907H76v76h141v141q0 204 135 311t357 107q84 0 150-17t103-43.5 54.5-46 27.5-38.5q33-38 33-84 0-53-36.5-89t-88.5-36-88.5 36-36.5 89q0 46 29.5 80.5T930 1436q-75 47-185 47-149 0-238-85.5T418 1161V983h635V0H852z"/><glyph unicode="ﬂ" horiz-adv-x="1226" d="M854 0v907H418V0H217v907H76v76h141v201q0 358 272 358 65 0 120-21t77-42l23-21-31-49q-53 43-121 43-139 0-139-221V983h436v553h199V0H854z"/><glyph horiz-adv-x="0"/><glyph horiz-adv-x="682"/><glyph horiz-adv-x="546"/><glyph horiz-adv-x="546"/><glyph horiz-adv-x="546"/><glyph unicode="!" horiz-adv-x="546" d="m195 434-21 1000h199L352 434H195zm-48-323q0 52 37 88.5t88 36.5q53 0 90-36.5t37-88.5-37-88.5T272-14q-51 0-88 36.5T147 111z"/><glyph unicode="&quot;" horiz-adv-x="655" d="m117 920-25 514h176l-26-514H117zm297 0-25 514h176l-26-514H414z"/><glyph unicode="#" horiz-adv-x="1601" d="m793 0 116 410H514L397 0H293l117 410H113v82h319l129 452H258v82h326l116 408h109l-117-408h395l117 408h107l-117-408h295v-82h-320l-129-452h312v-82h-336L899 0H793zM668 944 539 492h395l129 452H668z"/><glyph unicode="$" horiz-adv-x="1308" d="M608-102v92Q359 2 230.5 114T96 428h205q0-144 80-246.5T608 57v578q-29 11-45 20-63 28-103 46.5T370 747t-80.5 50-63.5 55-50.5 64.5-29 74.5-11.5 90q0 161 120 258.5T608 1446v90h92v-90q463-18 469-404H963q0 136-68.5 225T700 1376V813l48-18q99-43 163-76t124-73.5 93-82 52.5-94.5 19.5-117q0-171-127-264.5T700-12v-90h-92zm387 407q0 50-15.5 87.5T925 464t-89.5 62.5T700 594V53q61 2 112.5 17.5t93 45 65.5 78T995 305zm-657 832q0-96 62.5-156.5T608 854v528q-128-6-199-72t-71-173z"/><glyph unicode="%" horiz-adv-x="1533" d="m291 0 860 1434h98L387 0h-96zM106 1085q0 159 82.5 264T397 1454t208.5-105 82.5-264-82.5-263.5T397 717 188.5 821.5 106 1085zm136 0q0-125 44-205.5T397 799q68 0 112 80.5t44 205.5q0 126-44 206.5T397 1372q-66 0-110.5-81T242 1085zm604-739q0 160 82.5 264.5T1137 715t208-104.5 82-264.5q0-158-82-262T1137-20 928.5 84 846 346zm135 0q0-125 44.5-206T1137 59q68 0 111.5 80.5T1292 346q0 127-43.5 208T1137 635q-67 0-111.5-81.5T981 346z"/><glyph unicode="&amp;" horiz-adv-x="1411" d="M1100 709h147q0-105-37-215.5T1104 287L1354 0h-264L969 141Q778-16 532-16 331-16 206.5 85T82 352q0 76 26.5 141t78 118T291 703t129 83q-93 117-133.5 200T246 1149q0 132 104.5 215.5T627 1448q167 0 262.5-81t95.5-210q0-53-18-100.5t-44-82-72-71.5-83-61-96-58l69-79 283-326q76 164 76 330zM600 66q177 0 311 141L582 596q-15 16-41 46t-37 42q-103-70-160-149t-57-189q0-135 90-207.5T600 66zM438 1188q0-59 36.5-130.5T592 883q125 71 191.5 137.5T850 1174q0 86-61 139t-154 53q-89 0-143-51.5T438 1188z"/><glyph unicode="'" horiz-adv-x="360" d="m117 920-25 514h176l-26-514H117z"/><glyph unicode="(" horiz-adv-x="571" d="M524-307h-94q-7 7-18.5 19.5t-46 57T300-135 231.5-2t-65 170.5-46 208T102 621q0 123 18 240t47 205.5 64 167 70 132.5 64 93.5 47 58.5l18 18h96q-10-12-27-35t-60-107-76-181-60-257-27-335q0-172 25.5-331t62-262.5 73-183T498-271z"/><glyph unicode=")" horiz-adv-x="571" d="M141-307H47q10 13 27 37.5t59.5 112 75 186.5T268 288.5 295 621q0 175-25.5 333.5t-62.5 260-74 178T70 1502l-25 34h96q7-7 18.5-19.5t46-56.5 65.5-94.5 68.5-131.5 65-168 46-204.5T469 621q0-125-18-244t-47-209T340-1.5t-70-134-64-94.5-47-58z"/><glyph unicode="*" horiz-adv-x="917" d="m502 1434-6-289 272 96 27-84-277-84 174-227-69-53-166 237-164-235-70 51 170 227-272 84 26 84 273-96-6 289h88z"/><glyph unicode="+" horiz-adv-x="972" d="M844 594H528V279h-82v315H127v82h319v317h82V676h316v-82z"/><glyph unicode="," horiz-adv-x="432" d="M168-281H57l70 465h197z"/><glyph unicode="-" horiz-adv-x="716" d="M614 506H102v82h512v-82z"/><glyph unicode="." horiz-adv-x="432" d="M92 111q0 53 36 89t89 36 89-36 36-89-36-89-89-36-89 36-36 89z"/><glyph unicode="/" horiz-adv-x="960" d="m0-307 866 1843h95L90-307H0z"/><glyph unicode="0" horiz-adv-x="1351" d="M117 717q0 207 72 374.5t200 262 287 94.5 286.5-94.5 199-262T1233 717t-71.5-375-199-263T676-16 389 79 189 342t-72 375zm213 0q0-191 45-342t123.5-234.5T676 57t177.5 83.5T977 375t45 342q0 289-98 473t-248 184-248-184-98-473z"/><glyph unicode="1" horiz-adv-x="854" d="m135 1190 326 244 18-2 2 2h154V0H430v1276l-295-223v137z"/><glyph unicode="2" horiz-adv-x="1212" d="M109 0v158q0 16 43 54t112 91 152 119 166 145 152 160 112 174 43 178q0 118-78 202.5T614 1366q-129 0-215-106.5T313 1020H117q0 84 33.5 161t95.5 136.5 158 95 212 35.5q114 0 208-34t153-90.5 91-128 32-148.5q0-93-47-188T931.5 685t-165-153.5-181-134.5-165-107.5-121.5-82-47-49.5h860V0H109z"/><glyph unicode="3" horiz-adv-x="1310" d="M131 373h195q1-6 2.5-17.5t11-43T363 252t41-64.5 61-61 87-43T668 66q156 0 237.5 95.5T987 406q0 344-465 344v81l424 453H205v150h909v-107L635 827q281-15 419-115t138-288q0-137-70-238T932.5 34.5 659-16q-77 0-144.5 13.5T398 33.5 308.5 85 241 146t-48 64.5-32 61.5-18.5 51.5T133 360z"/><glyph unicode="4" horiz-adv-x="1251" d="M788 0v356H86v52q9 11 25 30t61.5 82T259 649t91.5 163.5 87 192 61.5 209 25 220.5h205q0-97-28.5-203.5t-74-200T526 847 416 686.5t-100.5-125T242 478l-29-29h575v428l58 106h147V449h183v-93H993V0H788z"/><glyph unicode="5" horiz-adv-x="1269" d="M106 373h197q1-6 2.5-17.5t10.5-43 22-60.5 39-64.5 59-61 84.5-43T633 66q146 0 222.5 90.5T932 406q0 188-100 278t-283 90q-76 0-154.5-14T276 732l-40-13-29 29 72 686h755v-150H352l-51-436q147 35 279 35 267 0 413-130t146-341q0-199-134-313.5T629-16q-80 0-149 13.5t-118 36T272.5 85 206 146t-45.5 64.5T131 272t-16 51.5-7 36.5z"/><glyph unicode="6" horiz-adv-x="1318" d="M682 1374q-69 0-124.5-27t-93-76.5-64.5-113-42-144-21-162-5-173.5q43 110 141.5 171.5T711 911q91 0 175-32t150.5-89.5 106-147T1182 446q0-211-140-336.5T674-16q-141 0-249 52.5T250.5 184t-100 222T117 688q0 190 43 337t120.5 238.5 180 138T686 1448q152 0 276.5-74t182.5-203H956q-38 95-108 149t-166 54zm-23-571q-136 0-224-86t-99-203Q380 59 659 59q141 0 226.5 96T971 420q0 168-85.5 275.5T659 803z"/><glyph unicode="7" horiz-adv-x="1185" d="M80 1434h991v-107q-10-13-27.5-37.5T975 1186t-97-162.5T775.5 815t-97-248T610 293 582 0H377q0 131 31.5 273T491 536.5t112 238 122.5 207T838 1141t82 106l32 37H80v150z"/><glyph unicode="8" horiz-adv-x="1236" d="M1092 1083q0-56-16.5-105.5T1035 892t-61-69.5-68-55-72-44.5q159-82 234-166.5t75-208.5q0-165-130-262.5T631-12q-254 0-392.5 98.5T100 354q0 58 19 111t46.5 90 71 73.5 78 58.5 82.5 48q-126 70-185.5 148.5T152 1079q0 166 121 267.5T621 1448q225 0 348-100.5t123-264.5zM547 659l-39 17q-41-28-71-53.5t-65.5-65-55-89.5T297 362q0-137 92.5-223T641 53q135 0 217 65.5T940 313q0 31-4 55.5t-16.5 48-25 41-41 39T802 533t-69.5 38.5-83 40.5T547 659zm-197 469q0-112 72.5-178T702 788l19-10q30 25 45 38.5t45.5 46.5 46.5 61 29.5 70 13.5 87q0 135-80 218t-215 83q-124 0-190-69t-66-185z"/><glyph unicode="9" horiz-adv-x="1294" d="M604 57q60 0 108.5 20t82.5 54 60 85.5 42 108 26 129 14 140 5 149.5q-88-213-356-213-199 0-324 121T137 985q0 216 130.5 339.5T629 1448q528 0 528-688 0-385-144-580.5T598-16q-336 0-457 276h191Q410 57 604 57zm37 582q133 0 212 77t87 193q-6 108-22.5 187.5t-48.5 144-86.5 98T653 1372q-141 0-225-96t-84-279q0-159 76-258.5T641 639z"/><glyph unicode=":" horiz-adv-x="432" d="M92 111q0 53 36 89t89 36 89-36 36-89-36-89-89-36-89 36-36 89zm0 759q0 53 36.5 90t88.5 37 88.5-37 36.5-90q0-51-36.5-88T217 745t-88.5 37T92 870z"/><glyph unicode=";" horiz-adv-x="432" d="M168-281H57l70 465h197zM92 870q0 53 36.5 90t88.5 37 88.5-37 36.5-90q0-51-36.5-88T217 745t-88.5 37T92 870z"/><glyph unicode="&lt;" horiz-adv-x="972" d="M834 289 137 569v88l697 283v-88L246 612l588-235v-88z"/><glyph unicode="=" horiz-adv-x="972" d="M844 719H127v82h717v-82zm0-318H127v82h717v-82z"/><glyph unicode="&gt;" horiz-adv-x="972" d="M834 569 137 289v88l586 235-586 238v88l697-281v-88z"/><glyph unicode="?" horiz-adv-x="1267" d="M481 111q0 53 36.5 89t88.5 36 88.5-36 36.5-89-36.5-89T606-14t-88.5 36-36.5 89zm49 323-8 361q209 83 297 160.5t88 185.5q0 110-72.5 175.5T631 1382q-141 0-216-92t-75-258H133q3 201 122.5 308.5T621 1448q239 0 364-98.5t125-262.5q0-77-29-139t-87.5-110T863 754t-175-72l-2-248H530z"/><glyph unicode="@" horiz-adv-x="2164" d="m1653-109 14-73q-11-9-31.5-24t-91.5-54-149-68.5-201-53.5-250-24q-246 0-430 84T228.5-76.5 127 305q0 163 56 322t160 291 241 233.5 308.5 158T1245 1366q231 0 412-89t281-248.5T2038 666q0-89-19.5-182T1958 301t-98.5-160.5-140-113.5T1542-16q-108 0-165.5 47.5T1311 160Q1160-14 942-14 765-14 658 93.5T551 379q0 112 44 222.5T714.5 800 901 942.5t234 54.5q115 0 193.5-47T1444 817l92 166h106q-149-770-149-811 0-54 24-81.5t66-27.5q64 0 121 61t93 153.5 56.5 196T1874 668q0 180-82 322.5t-229.5 222T1229 1292q-151 0-295-54.5T674.5 1087 471 867.5t-136-270T287 303q0-288 180.5-446T967-301q112 0 223.5 20t191.5 48 143.5 56 95.5 48zM748 336q0-128 63.5-202.5T985 59q94 0 179 83t137 204.5 67 249.5q21 148-35 238t-176 90q-103 0-199.5-92.5T804.5 603 748 336z"/><glyph unicode="A" horiz-adv-x="1495" d="m1223 0-195 428H336L145 0H41l631 1434h112L1454 0h-231zM682 1198 373 508h620z"/><glyph unicode="B" horiz-adv-x="1423" d="M199 0v1434h524q230 0 359.5-94t129.5-263q0-125-73-209T930 748q172-29 268-125.5t96-243.5q0-177-136-278T786 0H199zm520 702H403V80h316q169 0 266.5 80.5T1083 389t-98 230.5T719 702zm-62 652H403V782h256q165 0 259 73.5t94 211.5-95 212.5-260 74.5z"/><glyph unicode="C" horiz-adv-x="1576" d="M1272 428h205q-28-149-115.5-250T1147 30.5 858-16q-180 0-321.5 57.5t-230 159-134 233.5T127 721q0 157 46.5 289.5t135 230T533 1393t307 55q119 0 221.5-26.5t186-80 139-141.5 71.5-203h-205q-22 174-134 275.5T831 1374q-102 0-185-37t-139-99.5-94.5-147.5T357 912.5 340 719q0-105 19.5-201.5t60.5-181T519.5 190t142-97.5T844 57q169 0 284 95.5T1272 428z"/><glyph unicode="D" horiz-adv-x="1542" d="M199 0v1434h469q157 0 295.5-52.5T1204 1235t161.5-231.5T1425 705q0-199-85.5-359t-245-253T729 0H199zm469 1354H403V80h326q206 0 344.5 172T1212 702q0 294-153 473t-391 179z"/><glyph unicode="E" horiz-adv-x="1339" d="M199 0v1434h1013v-80H403V772h748v-80H403V80h830V0H199z"/><glyph unicode="F" horiz-adv-x="1288" d="M199 0v1434h1013v-80H403V772h687v-80H403V0H199z"/><glyph unicode="G" horiz-adv-x="1607" d="M879 592v80h569V227q-80-122-231-182.5T874-16q-189 0-336.5 58t-238 160T163 435.5 117 721q0 157 46.5 289.5t134.5 230T522 1393t307 55q94 0 178.5-16.5t159.5-52 132.5-87.5 96.5-127.5 52-167.5h-205q-22 174-134 275.5T821 1374q-102 0-185-37t-139-99.5-94.5-148-55.5-179T330 715q0-131 32-247t94.5-209 166-147.5T858 57q117 0 221 40t164 118v377H879z"/><glyph unicode="H" horiz-adv-x="1658" d="M1253 0v692H403V0H199v1434h204V772h850v662h205V0h-205z"/><glyph unicode="I" horiz-adv-x="604" d="M199 0v1434h204V0H199z"/><glyph unicode="J" horiz-adv-x="1083" d="M909 1434V502q0-256-121.5-387T461-16q-85 0-157 24T186.5 67t-78 77T62 220.5 47 279h84q2-25 21.5-56.5T205 159t87-53.5T408 84q139 0 220 98t81 271v981h200z"/><glyph unicode="K" horiz-adv-x="1368" d="m199 0 2 1434h198V0H199zm868 0L403 719l713 715h113q-123-128-322-328T606 801L1327 0h-260z"/><glyph unicode="L" horiz-adv-x="1198" d="M199 0v1434h204V80h750V0H199z"/><glyph unicode="M" horiz-adv-x="1888" d="M412 1434 954 272l529 1151v11h205V0h-205v1225L958 61H834L281 1223V0h-82v1434h213z"/><glyph unicode="N" horiz-adv-x="1587" d="M281 1141V0h-82v1434h82L1305 293v1141h81V0h-81z"/><glyph unicode="O" horiz-adv-x="1689" d="M117 717q0 155 55 291t150.5 232.5 231 152T844 1448t290.5-55.5 231-152T1516 1008t55-291-55-291-150.5-233-231-153T844-16 553.5 40t-231 153T172 426t-55 291zm213 0q0-289 146-474.5T844 57q147 0 264.5 83.5T1293 375t67 342q0 190-67 340.5T1108.5 1291 844 1374q-146 0-263.5-83t-184-233.5T330 717z"/><glyph unicode="P" horiz-adv-x="1314" d="M199 0v1434h479q156 0 279-52.5t192.5-148.5 69.5-219q0-188-151.5-304T678 594H403V0H199zm428 1354H403V674h224q169 0 274 92t105 246-106 248-273 94z"/><glyph unicode="Q" horiz-adv-x="1689" d="M117 717q0 155 55 291t150.5 232.5 231 152T844 1448t290.5-55.5 231-152T1516 1008t55-291q0-203-90-367.5T1235 90q128-117 238-117 61 0 132.5 31.5T1718 67l41 31V23q-5-7-15-19.5T1701-40t-68.5-55-91-43.5T1430-158q-47 0-90.5 15t-85 47-68.5 58-68 71Q993-16 844-16q-155 0-290.5 56t-231 153T172 426t-55 291zm747-383q74 0 138.5-41.5T1147 172q100 88 156.5 229.5T1360 717q0 190-67 340.5T1108.5 1291 844 1374q-146 0-263.5-83t-184-233.5T330 717q0-191 66.5-341.5T580 141l-5 25q5 7 14.5 18t40.5 40 62.5 51.5 79 40.5 92.5 18zM844 57q113 0 205 47-111 111-201 111-104 0-230-98 105-60 226-60z"/><glyph unicode="R" horiz-adv-x="1368" d="M199 0v1434h493q239 0 383-107t144-293q0-151-95-250.5T862 651L1296 0h-221L651 635H403V0H199zm442 1354H403V715h240q169 0 266 82t97 235-98 237.5-267 84.5z"/><glyph unicode="S" horiz-adv-x="1320" d="M348 1137q0-25 3.5-47.5t14-43 20-37 31-35 36-30.5 47-30 51.5-28.5 62-30 66.5-30T756 793q99-43 163-75t123.5-72.5T1135 564t52-94 19-118q0-177-130.5-272.5T686-16Q407-16 258.5 98.5T102 428h205q0-162 99.5-266.5T692 57q136 0 222.5 60.5T1001 301q0 108-79 167.5T584 647q-9 4-13 6-193 89-261 135-123 82-153 194-12 44-12 97 0 176 124.5 272.5T645 1448q258 0 394-104t139-300H971q0 152-83 239.5T647 1374q-140 3-219.5-60.5T348 1137z"/><glyph unicode="T" horiz-adv-x="1347" d="M45 1354v80h1258v-80H776V0H571v1354H45z"/><glyph unicode="U" horiz-adv-x="1536" d="M1280 532v902h82V543q0-253-153-406T791-16q-177 0-316.5 68t-220 196T174 543v891h205V532q0-112 38-203t103-148 148-87.5T844 63q88 0 165 28t138.5 83 97 147 35.5 211z"/><glyph unicode="V" horiz-adv-x="1495" d="M272 1434 811 233l539 1201h104L823 0H711L41 1434h231z"/><glyph unicode="W" horiz-adv-x="2263" d="m1208 1434 471-1174 437 1174h110L1694 0h-117l-408 987L782 0H674L41 1434h219L774 266l338 860-125 308h221z"/><glyph unicode="X" horiz-adv-x="1415" d="m307 1434 432-590 441 590h100L795 770 1360 0h-248L639 645 162 0H61l525 719-525 715h246z"/><glyph unicode="Y" horiz-adv-x="1298" d="M567 0v614L41 1434h242l438-670 438 670h98L772 688V0H567z"/><glyph unicode="Z" horiz-adv-x="1310" d="m66 37 915 1317H98v80h1143l10-37L334 78h897V0H76z"/><glyph unicode="[" horiz-adv-x="763" d="M184-307v1843h516v-80H383V-227h317v-80H184z"/><glyph unicode="\" horiz-adv-x="960" d="M92 1536 961-307h-93L0 1536h92z"/><glyph unicode="]" horiz-adv-x="761" d="M578-307H61v80h318v1683H61v80h517V-307z"/><glyph unicode="^" horiz-adv-x="1081" d="M186 993H92l344 441h209l344-441h-94l-354 342z"/><glyph unicode="_" horiz-adv-x="1024" d="M1024-186H0v84h1024v-84z"/><glyph unicode="`" horiz-adv-x="645" d="M553 1118h-82L92 1460h217z"/><glyph unicode="a" horiz-adv-x="1167" d="M573 995q200 0 310-92.5T993 639V0H870l-49 133Q715-14 485-14q-160 0-265 70.5T115 264q0 77 36 134t102 91 150.5 50T592 555q102 0 203-16v96q0 287-224 287-105 0-174-61.5T328 684H150q0 149 117.5 230T573 995zM305 266q0-96 66.5-146T537 70q115 0 178 69t80 211v121q-90 12-152 12-157 0-247.5-52.5T305 266z"/><glyph unicode="b" horiz-adv-x="1261" d="M174 0v1536h199V862q116 135 307 135 211 0 345-142t134-363q0-220-134.5-363T680-14q-225 0-340 178L281 0H174zm193 492q0-198 76-315.5T651 59q133 0 219 120t86 313q0 195-85 313.5T651 924q-131 0-207.5-117T367 492z"/><glyph unicode="c" horiz-adv-x="1183" d="M301 492q0-194 90-316.5T616 53q103 0 178 66.5T893 317h180q-27-156-157-243.5T606-14q-224 0-367 142T96 492q0 221 142 363t362 142q117 0 217-39.5T985 842t86-176H893q-25 120-101 191t-178 71q-134 0-223.5-122T301 492z"/><glyph unicode="d" horiz-adv-x="1257" d="M1083 1536V0H954l-45 156Q794-14 578-14q-210 0-346 143T96 492q0 221 135.5 363T578 997q191 0 305-133v672h200zM891 492q0 197-77 314.5T606 924q-135 0-220-118.5T301 492q0-194 85.5-313.5T606 59q131 0 208 118t77 315z"/><glyph unicode="e" d="M604 997q97 0 184-29.5T942.5 883t108-140.5T1092 553v-84H301q4-185 93.5-300.5T618 53q103 0 181.5 69.5T903 299h191q-26-141-164-227T612-14q-230 0-373 141T96 489q0 223 142.5 365.5T604 997zm2-69q-118 0-204-103.5T303 553h600q-3 157-95 266T606 928z"/><glyph unicode="f" horiz-adv-x="778" d="M76 907v76h141v201q0 180 76.5 269t218.5 89q44 0 84-8.5t65-21 43.5-25T731 1466l8-8-30-49q-62 43-138 43-70 0-111.5-53.5T418 1231V983h293v-76H418V0H217v907H76z"/><glyph unicode="g" horiz-adv-x="1193" d="M125 672q0 148 123.5 236.5T561 997q142 0 248-53 66 80 156.5 126t193.5 46V944q-29 14-74 14-114 0-192-67 102-88 102-223 0-146-119-236t-307-90q-147 0-252 51-43-65-43-135 0-25 9-47t31-44.5 69.5-36T498 117h272q94 0 165.5-23.5t118-82T1100-135q0-80-38-150T951-409.5 760.5-495 494-526q-209 0-323 64T57-272q0 152 152 282-90 67-90 185 0 132 117 249-111 87-111 228zM446-51q-80 0-145 18-96-87-96-203 0-194 311-194 128 0 231 29t163.5 83.5T971-193 907.5-87 737-51H446zM309 674q0-122 75-192t185-70q107 0 174.5 69T811 670q0 122-70.5 190T561 928t-180.5-67T309 674z"/><glyph unicode="h" horiz-adv-x="1269" d="M174 0v1536h199V836q64 76 156.5 118.5T731 997q166 0 265.5-94.5T1096 653V0H895v633q0 136-56.5 213.5T680 924q-111 0-198.5-92T373 582V0H174z"/><glyph unicode="i" horiz-adv-x="546" d="M174 0v983h199V0H174zm-27 1286q0 52 37 88.5t88 36.5q53 0 90-36.5t37-88.5-37-88.5-90-36.5q-51 0-88 36.5t-37 88.5z"/><glyph unicode="j" horiz-adv-x="555" d="M381 983V-113q0-221-77-317T86-526q-40 0-78 7t-64 17-46 20.5-30 17.5l-9 7 32 64q64-33 134-33 75 0 116 64t41 223V983h199zm-225 303q0 52 37 88.5t88 36.5q53 0 90-36.5t37-88.5-37-88.5-90-36.5q-51 0-88 36.5t-37 88.5z"/><glyph unicode="k" horiz-adv-x="1087" d="M819 0 373 473V0H174v1536h199V580l428 403h151L537 582 1047 0H819z"/><glyph unicode="l" horiz-adv-x="546" d="M174 0v1536h199V0H174z"/><glyph unicode="m" horiz-adv-x="1892" d="M174 0v983h121l61-154q60 80 147.5 124T696 997q114 0 196.5-51T1014 805q59 92 150.5 142t205.5 50q158 0 253-95t95-249V0h-200v633q0 140-51 215.5T1321 924q-107 0-184.5-96T1044 569V0H844v633q0 140-51 215.5T647 924q-103 0-178.5-89.5T373 588V0H174z"/><glyph unicode="n" horiz-adv-x="1269" d="M174 0v983h121l65-162q65 84 161 130t210 46q166 0 265.5-94.5T1096 653V0H895v633q0 136-56.5 213.5T680 924q-111 0-198.5-92T373 582V0H174z"/><glyph unicode="o" d="M96 492q0 221 142.5 363T602 997q220 0 363-144.5T1108 489q0-220-142.5-361.5T602-14 238.5 128.5 96 492zm205 0q0-195 84.5-317T602 53q133 0 218 122t85 317q0 193-85 314.5T602 928q-132 0-216.5-120.5T301 492z"/><glyph unicode="p" horiz-adv-x="1257" d="M174-512V983h127l43-158q117 172 338 172 207 0 342-147t135-363q0-217-135-359T682-14q-196 0-309 135v-633H174zM367 492q0-198 76.5-315.5T651 59q135 0 220 118.5T956 489t-86 314-219 121q-132 0-208-117t-76-315z"/><glyph unicode="q" horiz-adv-x="1257" d="M1083 983V-512H883v631Q769-14 573-14q-206 0-341.5 143T96 492q0 218 135.5 361.5T573 997q227 0 342-178l60 164h108zM891 492q0 197-77 314.5T606 924q-134 0-219.5-120.5T301 489q0-193 85-311.5T604 59t210 117.5T891 492z"/><glyph unicode="r" horiz-adv-x="823" d="M174 0v983h121l76-186q67 94 166.5 147T752 997V825q-25 15-72 15-116 0-201-73T373 549V0H174z"/><glyph unicode="s" horiz-adv-x="1017" d="M295 772q0-52 41-92.5t83-60T565 561q27-11 41-16 156-63 223.5-125.5T897 254q0-126-97.5-198T516-16q-192 0-301 79T102 289h189q0-111 60.5-173.5T522 53q90 0 146.5 41.5T725 217q0 24-6.5 44.5t-15.5 36-32 33-40.5 28.5-57.5 29-67 29-84 34q-51 19-80 31t-69 31.5-62 38.5-44.5 45.5-32 60T125 731q0 119 89 192.5T489 997q179 0 285-71.5T883 711H702q0 106-62 161.5T481 928q-90 0-138-43.5T295 772z"/><glyph unicode="t" horiz-adv-x="849" d="M76 907v76h141v184l201 72V983h352v-76H418V266q0-87 43.5-135.5T586 82q47 0 88.5 18.5T734 138l18 18 28-37q-2-6-7.5-15T746 71.5 698 30 622-3 516-18q-138 0-218.5 76T217 260v647H76z"/><glyph unicode="u" horiz-adv-x="1269" d="M1096 983V0H973l-66 160Q842 77 747 31.5T539-14q-167 0-266 94t-99 250v653h199V350q0-137 56.5-214T590 59q108 0 194.5 88T895 387v596h201z"/><glyph unicode="v" horiz-adv-x="1142" d="m289 983 336-750 336 750h116L647 0H535L68 983h221z"/><glyph unicode="w" horiz-adv-x="1708" d="m930 983 307-735 289 735h114L1257 0h-106L883 610 631 0H524L68 983h219l323-741 211 503-102 238h211z"/><glyph unicode="x" horiz-adv-x="1069" d="m301 983 252-348 270 348h135L625 537 1014 0H786L494 401 190 0H53l369 502L72 983h229z"/><glyph unicode="y" horiz-adv-x="1132" d="m283 983 346-747 321 747h115L432-512H256L522 23 57 983h226z"/><glyph unicode="z" horiz-adv-x="1107" d="m94 37 654 866H104v80h897v-37L344 78h657V0H94v37z"/><glyph unicode="{" horiz-adv-x="780" d="M86 584v59l22 5q23 6 28.5 8t26.5 9 29.5 12 23.5 15.5 21.5 21 12.5 26 6 32.5v434q0 171 123 260.5t340 89.5v-81q-62 0-106-11.5t-81-41-56-86-19-140.5V782q0-47-35-86.5T344 636t-82-24q39-4 82-23.5t78-58.5 35-86V33q0-154 68.5-217.5T719-248v-80q-214 0-338.5 92T256 23v432q0 23-10 42t-21 30.5-34.5 22.5-35 14.5-39 11T86 584z"/><glyph unicode="|" horiz-adv-x="471" d="M188-307v1843h93V-307h-93z"/><glyph unicode="}" horiz-adv-x="780" d="M694 643v-59l-22-6q-23-5-28.5-7t-26.5-9-29.5-12-23.5-15.5-21.5-21-12.5-26-6-32.5V23q0-171-123-261T61-328v80q61 0 105.5 12t82 41.5T305-108t19 141v411q0 47 35 86t77.5 58.5T518 612q-39 4-81.5 24T359 695.5 324 782v414q0 154-69 217.5T61 1477v79q213 0 338-92.5T524 1206V772q0-23 10-42t21-30.5 34.5-22.5 35-14.5 39-11T694 643z"/><glyph unicode="~" horiz-adv-x="1093" d="M381 741q59 0 131-28t140-56 116-28q38 0 85 27.5t75 55.5l28 27v-77q-4-7-11.5-18.5t-32-40.5-51-51.5-65.5-41-77-18.5q-55 0-131.5 28.5t-147.5 57T328 606q-43 0-90.5-30T164 516l-27-29v78q4 7 10.5 19t30 42.5T227 680t68 42 86 19z"/><glyph unicode="¡" horiz-adv-x="546" d="m174-436 21 999h157l21-999H174zM147 887q0 52 37 88.5t88 36.5q53 0 90-36.5t37-88.5-37-88.5-90-36.5q-51 0-88 36.5T147 887z"/><glyph unicode="¢" horiz-adv-x="1187" d="M561-135v123Q355 0 225.5 140.5T96 492t130.5 351T561 995v123h92V995q162-15 281-111t145-239H924q-27 113-99 189.5T653 924V55q101 14 172 87.5T924 338h157q-24-147-144-241.5T653-12v-123h-92zM279 492q0-188 76.5-302T561 57v867q-128-19-205-132.5T279 492z"/><glyph unicode="£" horiz-adv-x="1257" d="M928 1020q0 86-37 164t-107 129-157 51q-120 0-198.5-82T350 1071q0-80 45.5-207.5T451 684h360v-86H461v-16q0-42-6.5-93T440 394.5 419 300t-21-80.5-19-66-12-38.5h751V0H125v115h90q74 315 74 458v25H125v86h149q-11 45-35 92.5t-45 80-37 82.5-16 105q0 80 32.5 153t92.5 129 152.5 89 204.5 33q114 0 209.5-34.5T991 1320t98-136.5 35-163.5H928z"/><glyph unicode="¤" horiz-adv-x="968" d="M147 614q0 122 72 213L86 961l57 59 133-135q90 71 213 71 118 0 213-69l132 131 57-57-131-134q74-90 74-213 0-121-72-215l131-129-59-57-129 129q-94-72-216-72-124 0-215 72L147 213l-57 57 127 131q-70 93-70 213zm95 0q0-106 70.5-176.5T489 367t177 70.5T737 614q0 105-71.5 176.5T489 862q-106 0-176.5-71T242 614z"/><glyph unicode="¥" horiz-adv-x="1300" d="M567 0v207H309v84h258v194H309v82h258v47L41 1434h242l438-670 438 670h98L772 688V567h264v-82H772V291h264v-84H772V0H567z"/><glyph unicode="¦" horiz-adv-x="471" d="M188-307v819h93v-819h-93zm93 1843V717h-93v819h93z"/><glyph unicode="§" horiz-adv-x="1247" d="M307 1151q0-28 8-52.5t19-43 36-38.5 46.5-33.5 63-33.5 72.5-33.5 88.5-39T739 834q225-99 315.5-184t90.5-214q0-121-73-202T856 121q163-75 226-137.5t63-169.5q0-162-132.5-251T635-526q-272 0-407.5 111T86-106h213q0-153 92.5-246.5T653-446q126 0 211.5 55.5T950-231q0 26-5 48t-18.5 42-27 35.5-40.5 33T811-43t-60 30-67 30-79 34-85 37q-81 35-135 62t-110 64.5-88 75-52 88T115 487q0 115 72 197t212 115q-149 65-216.5 130T115 1106q0 156 131.5 249t369.5 93q245 0 374.5-102t131.5-295H911q0 144-82.5 228.5T596 1368q-135 4-212-56.5T307 1151zm-16-625q0-31 10.5-59.5t26-51.5 47-48.5T435 322t80.5-45.5 92-45.5T717 180q102 13 175 70.5T965 399q0 97-100 171T539 741q-116-9-182-68.5T291 526z"/><glyph unicode="¨" horiz-adv-x="837" d="M92 1288q0 43 30 73t71 30q43 0 72.5-30t29.5-73q0-41-29.5-70.5T193 1188q-41 0-71 29.5T92 1288zm451 0q0 43 29.5 73t70.5 30q43 0 72.5-30t29.5-73q0-41-29.5-70.5T643 1188q-41 0-70.5 29.5T543 1288z"/><glyph unicode="©" horiz-adv-x="1701" d="M117 717q0 153 56 288.5T325 1238t231 153.5 288 56.5 288-56.5 231-153.5 152-232.5 56-288.5-56-289-152-233.5-231-154T844-16 556 40.5t-231 154T173 428t-56 289zm86 0q0-136 49-256t134-205.5T590 120t254-50 254.5 50 204 135.5T1436 461t49 256q0 135-49 254.5t-133.5 205-204 135.5-254.5 50-254-50-204-135.5-134-205T203 717zm407-2q0-154 69-249t175-95q82 0 144.5 58.5T1081 594h148q-21-126-130.5-204.5T846 311q-175 0-288.5 113.5T444 715q0 174 113 287.5T842 1116q145 0 254-79.5T1227 838h-146q-20 96-84 158.5T852 1059q-104 0-173-95.5T610 715z"/><glyph unicode="ª" horiz-adv-x="743" d="M367 1442q122 0 190-56t68-157V844h-84l-31 74q-68-84-201-84-96 0-159.5 43T86 1004q0 90 78 132t209 42q33 0 116-9v56q0 170-124 170-58 0-98-38t-40-104H109q0 90 72 139.5t186 49.5zm-152-438q0-55 37.5-84t93.5-29q123 0 143 153v80q-40 6-81 6-193 0-193-126z"/><glyph unicode="«" horiz-adv-x="956" d="M510 283v-80L86 522v66l424 321v-82L231 555zm369 0v-80L455 522v66l424 321v-82L600 555z"/><glyph unicode="¬" horiz-adv-x="972" d="M762 422v194H127v82h717V422h-82z"/><glyph unicode="­" horiz-adv-x="716" d="M614 506H102v82h512v-82z"/><glyph unicode="®" horiz-adv-x="1701" d="M117 717q0 153 56 288.5T325 1238t231 153.5 288 56.5 288-56.5 231-153.5 152-232.5 56-288.5-56-289-152-233.5-231-154T844-16 556 40.5t-231 154T173 428t-56 289zm86 0q0-136 49-256t134-205.5T590 120t254-50 254.5 50 204 135.5T1436 461t49 256q0 135-49 254.5t-133.5 205-204 135.5-254.5 50-254-50-204-135.5-134-205T203 717zm364-348v716h283q132 0 212.5-54.5T1143 883q0-69-44-118t-122-71l215-325h-180L805 678h-68V369H567zm238 657h-68V737h68q74 0 118 36.5T967 881t-44.5 108-117.5 37z"/><glyph unicode="¯" horiz-adv-x="737" d="M645 1270H92v82h553v-82z"/><glyph unicode="°" horiz-adv-x="663" d="M92 1204q0 103 69 173.5t171 70.5q101 0 170-70.5t69-173.5q0-104-69-175t-170-71q-103 0-171.5 71T92 1204zm86 0q0-67 44-112t110-45q65 0 108 45t43 112q0 66-43.5 112T332 1362q-66 0-110-46t-44-112z"/><glyph unicode="±" horiz-adv-x="972" d="M854 748H539V432h-82v316H137v83h320v316h82V831h315v-83zm0-543H137v84h717v-84z"/><glyph unicode="²" horiz-adv-x="655" d="M76 717v90q0 8 28.5 32t71.5 55 92.5 74.5 92.5 88 71.5 98T461 1257q0 57-36.5 97.5T334 1395q-61 0-101-53t-40-119H78q0 90 69 154.5t187 64.5q115 0 181.5-61.5T582 1237q0-62-44-126T431.5 998.5t-125-88.5T200 843t-44-36h430v-90H76z"/><glyph unicode="³" horiz-adv-x="700" d="M84 905h113q1-6 2.5-16.5t12-36.5 26-45.5 46.5-36 72-16.5q75 0 112.5 45.5T506 918q0 167-221 167v48l204 215H123v86h461v-62l-238-242q279-18 279-202 0-104-76.5-161.5T352 709q-50 0-92 11t-69 28-47.5 38-31.5 42-17.5 38-8.5 28z"/><glyph unicode="´" horiz-adv-x="1118" d="M350 1118h-82l244 342h217z"/><glyph unicode="¶" horiz-adv-x="1384" d="M825 1434V-307H672v901q-236 0-377 115t-141 305q0 189 138 304.5T664 1434h161zm361 0V-307h-154v1741h154z"/><glyph unicode="·" horiz-adv-x="432" d="M92 614q0 52 36 88.5t89 36.5 89-36.5 36-88.5-36-88.5-89-36.5-89 36.5T92 614z"/><glyph unicode="¸" horiz-adv-x="532" d="M217 0h82l-10-96q63 0 107-40t44-104q0-68-51.5-104.5T264-381q-82 0-127 40t-45 95l80 2q0-3 1-7t6.5-15 14-19 25-15 37.5-7q35 0 55.5 20t20.5 54q0 48-38 69t-93 21z"/><glyph unicode="¹" horiz-adv-x="471" d="m82 1311 164 123h98V717H227v626L82 1233v78z"/><glyph unicode="º" horiz-adv-x="757" d="M76 1139q0 132 85.5 217.5T379 1442q133 0 218-86t85-219q0-131-85-217t-218-86q-132 0-217.5 86.5T76 1139zm137 0q0-117 46.5-188.5T379 879t119.5 71.5T545 1139q0 115-46.5 186.5T379 1397t-119.5-71-46.5-187z"/><glyph unicode="»" horiz-adv-x="946" d="M444 203v80l279 272-279 272v82l424-321v-66zm-368 0v80l278 272L76 827v82l424-321v-66z"/><glyph unicode="¼" horiz-adv-x="1357" d="m186 0 861 1434h98L283 0h-97zm908 0v172H748v29q9 10 23 28.5t51 76.5 65 116 51 139.5T961 717h116q0-67-26.5-142T986 440.5t-76-110-64-78.5l-27-27h275v205l32 62h84V225h90v-53h-90V0h-116zM82 1311l164 123h98V717H227v626L82 1233v78z"/><glyph unicode="½" horiz-adv-x="1404" d="M823 0v90q0 8 28.5 32t71.5 55 92.5 74.5T1108 340t71.5 98.5T1208 541q0 57-36 97t-91 40q-61 0-101-53t-40-119H825q0 90 69 154.5t187 64.5q115 0 181.5-61.5T1329 520q0-62-44-126t-106.5-112.5-125-88.5T947 126t-44-36h430V0H823zM176 0l860 1434h99L272 0h-96zM82 1311l164 123h98V717H227v626L82 1233v78z"/><glyph unicode="¾" horiz-adv-x="1511" d="m340 0 860 1434h98L436 0h-96zM84 905h113q1-6 2.5-16.5t12-36.5 26-45.5 46.5-36 72-16.5q75 0 112.5 45.5T506 918q0 167-221 167v48l204 215H123v86h461v-62l-238-242q279-18 279-202 0-104-76.5-161.5T352 709q-50 0-92 11t-69 28-47.5 38-31.5 42-17.5 38-8.5 28zM1247 0v172H901v29q9 10 23 28.5t51 76.5 65 116 51 139.5 23 155.5h117q0-67-26.5-142T1140 440.5t-76-110-64-78.5l-27-27h274v205l33 62h84V225h90v-53h-90V0h-117z"/><glyph unicode="¿" horiz-adv-x="1267" d="M764 887q0-52-37-88.5T639 762q-53 0-90 36.5T512 887t37 88.5 90 36.5q51 0 88-36.5t37-88.5zm-49-324 8-360Q512 120 424 42.5T336-143q0-110 72-176t204-66q141 0 217 91t76 259h205q-2-201-121.5-308.5T623-451q-239 0-364.5 98.5T133-90q0 77 29 139t87.5 110T380 243t175 72l4 248h156z"/><glyph unicode="À" horiz-adv-x="1495" d="m1223 0-195 428H336L145 0H41l631 1434h112L1454 0h-231zM682 1198 373 508h620zm172 371h-80l-381 342h217z"/><glyph unicode="Á" horiz-adv-x="1495" d="m1223 0-195 428H336L145 0H41l631 1434h112L1454 0h-231zM682 1198 373 508h620zm-2 371h-82l244 342h217z"/><glyph unicode="Â" horiz-adv-x="1495" d="m1223 0-195 428H336L145 0H41l631 1434h112L1454 0h-231zM682 1198 373 508h620zm-227 371h-82l264 352h178l264-352h-80l-274 266z"/><glyph unicode="Ã" horiz-adv-x="1495" d="m1223 0-195 428H336L145 0H41l631 1434h112L1454 0h-231zM682 1198 373 508h620zm-82 670q65 0 157.5-42t137.5-42q32 0 74.5 25t68.5 50l27 25v-78q-5-6-13.5-17t-34.5-38.5-50.5-48.5-56-38-56.5-17q-58 0-157.5 43T559 1733q-36 0-78.5-27.5T414 1651l-25-27v78q5 7 13 18t33 39.5 49 50.5 56.5 40 59.5 18z"/><glyph unicode="Ä" horiz-adv-x="1495" d="m1223 0-195 428H336L145 0H41l631 1434h112L1454 0h-231zM682 1198 373 508h620zm-283 541q0 42 30.5 72t72.5 30 72-30 30-72q0-41-30.5-71t-71.5-30-72 30-31 71zm451 0q0 42 30 72t72 30 72.5-30 30.5-72q0-41-31-71t-72-30-71.5 30-30.5 71z"/><glyph unicode="Å" horiz-adv-x="1495" d="m1223 0-195 428H336L145 0H41l631 1434h112L1454 0h-231zM682 1198 373 508h620zm-164 561q0 87 61 148t148 61q86 0 147.5-61.5T936 1759q0-87-61-148t-148-61q-88 0-148.5 60.5T518 1759zm86 0q0-53 35-88t88-35q51 0 86 35.5t35 87.5q0 51-35 86t-86 35q-52 0-87.5-35t-35.5-86z"/><glyph unicode="Æ" horiz-adv-x="1699" d="M686 0v428H328L125 0H18l668 1434h860v-80H891V772h594v-80H891V80h676V0H686zM365 508h321v674z"/><glyph unicode="Ç" horiz-adv-x="1527" d="M1237 428h205q-41-215-199.5-326.5T846-16l-8-80q63 0 107-40t44-104q0-68-51.5-104.5T813-381q-82 0-127 40t-45 95l80 2q0-3 1-7t6.5-15 14-19 25-15 37.5-7q35 0 55.5 20t20.5 54q0 48-38 69t-93 21l14 129Q598-5 468 56T257 217 134 445 92 721q0 157 46.5 289.5t134.5 230T497 1393t306 55q94 0 178.5-16.5t159.5-52 132.5-87.5 96.5-127.5 53-167.5h-204q-22 175-134.5 276T795 1374q-126 0-223-56t-154-150-86-208-29-241q0-132 32-249.5T427.5 259 586 111.5 807 57q170 0 285.5 95.5T1237 428z"/><glyph unicode="È" horiz-adv-x="1339" d="M199 0v1434h1013v-80H403V772h748v-80H403V80h830V0H199zm639 1569h-80l-381 342h217z"/><glyph unicode="É" horiz-adv-x="1339" d="M199 0v1434h1013v-80H403V772h748v-80H403V80h830V0H199zm403 1569h-80l244 342h217z"/><glyph unicode="Ê" horiz-adv-x="1339" d="M199 0v1434h1013v-80H403V772h748v-80H403V80h830V0H199zm219 1569h-82l264 352h178l264-352h-79l-275 266z"/><glyph unicode="Ë" horiz-adv-x="1339" d="M199 0v1434h1013v-80H403V772h748v-80H403V80h830V0H199zm163 1739q0 43 30 72.5t71 29.5q43 0 72.5-29.5T565 1739q0-41-29.5-71t-72.5-30q-41 0-71 30t-30 71zm451 0q0 43 29.5 72.5T913 1841q43 0 73-29.5t30-72.5q0-41-30-71t-73-30q-41 0-70.5 30t-29.5 71z"/><glyph unicode="Ì" horiz-adv-x="604" d="M199 0v1434h204V0H199zm252 1569h-80l-381 342h217z"/><glyph unicode="Í" horiz-adv-x="604" d="M199 0v1434h204V0H199zm37 1569h-82l243 342h217z"/><glyph unicode="Î" horiz-adv-x="604" d="M199 0v1434h204V0H199zM31 1569h-82l264 352h178l264-352h-80l-274 266z"/><glyph unicode="Ï" horiz-adv-x="604" d="M199 0v1434h204V0H199zM-25 1739q0 43 29.5 72.5T76 1841q43 0 72.5-29.5T178 1739q0-41-30-71t-72-30q-41 0-71 30t-30 71zm451 0q0 43 29.5 72.5T526 1841q43 0 73-29.5t30-72.5q0-41-30-71t-73-30q-41 0-70.5 30t-29.5 71z"/><glyph unicode="Ð" horiz-adv-x="1568" d="M225 0v676H55v82h170v676h467q210 0 382-89.5t274-257T1450 705q0-199-85.5-359t-245-253T754 0H225zm514 676H430V80h324q135 0 245 75.5T1174 374t65 328q0 195-71.5 344T972 1274.5 692 1354H430V758h309v-82z"/><glyph unicode="Ñ" horiz-adv-x="1587" d="M281 1141V0h-82v1434h82L1305 293v1141h81V0h-81zm405 727q65 0 157.5-42t137.5-42q32 0 74.5 25t68.5 50l27 25v-78q-5-6-13.5-17t-34.5-38.5-50.5-48.5-56-38-56.5-17q-58 0-157.5 43T645 1733q-36 0-78.5-27.5T500 1651l-25-27v78q5 7 13 18t33 39.5 49 50.5 56.5 40 59.5 18z"/><glyph unicode="Ò" horiz-adv-x="1689" d="M117 717q0 155 55 291t150.5 232.5 231 152T844 1448t290.5-55.5 231-152T1516 1008t55-291-55-291-150.5-233-231-153T844-16 553.5 40t-231 153T172 426t-55 291zm213 0q0-289 146-474.5T844 57q147 0 264.5 83.5T1293 375t67 342q0 190-67 340.5T1108.5 1291 844 1374q-146 0-263.5-83t-184-233.5T330 717zm663 852h-82l-379 342h218z"/><glyph unicode="Ó" horiz-adv-x="1689" d="M117 717q0 155 55 291t150.5 232.5 231 152T844 1448t290.5-55.5 231-152T1516 1008t55-291-55-291-150.5-233-231-153T844-16 553.5 40t-231 153T172 426t-55 291zm213 0q0-289 146-474.5T844 57q147 0 264.5 83.5T1293 375t67 342q0 190-67 340.5T1108.5 1291 844 1374q-146 0-263.5-83t-184-233.5T330 717zm446 852h-80l244 342h217z"/><glyph unicode="Ô" horiz-adv-x="1689" d="M117 717q0 155 55 291t150.5 232.5 231 152T844 1448t290.5-55.5 231-152T1516 1008t55-291-55-291-150.5-233-231-153T844-16 553.5 40t-231 153T172 426t-55 291zm213 0q0-289 146-474.5T844 57q147 0 264.5 83.5T1293 375t67 342q0 190-67 340.5T1108.5 1291 844 1374q-146 0-263.5-83t-184-233.5T330 717zm241 852h-79l264 352h178l264-352h-82l-272 266z"/><glyph unicode="Õ" horiz-adv-x="1689" d="M117 717q0 155 55 291t150.5 232.5 231 152T844 1448t290.5-55.5 231-152T1516 1008t55-291-55-291-150.5-233-231-153T844-16 553.5 40t-231 153T172 426t-55 291zm213 0q0-289 146-474.5T844 57q147 0 264.5 83.5T1293 375t67 342q0 190-67 340.5T1108.5 1291 844 1374q-146 0-263.5-83t-184-233.5T330 717zm387 1151q65 0 157.5-42t137.5-42q32 0 74.5 25t69.5 50l26 25v-78q-5-6-13.5-17t-34.5-38.5-50.5-48.5-56-38-56.5-17q-58 0-157.5 43T676 1733q-36 0-78.5-27.5T530 1651l-24-27v78q5 7 13 18t33 39.5 49 50.5 56.5 40 59.5 18z"/><glyph unicode="Ö" horiz-adv-x="1689" d="M117 717q0 155 55 291t150.5 232.5 231 152T844 1448t290.5-55.5 231-152T1516 1008t55-291-55-291-150.5-233-231-153T844-16 553.5 40t-231 153T172 426t-55 291zm213 0q0-289 146-474.5T844 57q147 0 264.5 83.5T1293 375t67 342q0 190-67 340.5T1108.5 1291 844 1374q-146 0-263.5-83t-184-233.5T330 717zm186 1022q0 42 30 72t72 30 72.5-30 30.5-72q0-41-31-71t-72-30-71.5 30-30.5 71zm451 0q0 42 30 72t72 30 72-30 30-72q0-41-30.5-71t-71.5-30-71.5 30-30.5 71z"/><glyph unicode="×" horiz-adv-x="1013" d="M768 317 504 580 244 319l-58 58 260 260-264 266 60 58 264-265 260 262 59-57-262-262 262-262z"/><glyph unicode="Ø" horiz-adv-x="1701" d="m449-55 55 116q-179 89-283 263T117 717q0 155 55 291t150.5 232.5 231 152T844 1448q157 0 293-57l43 90h92l-62-127q167-92 264-260t97-377q0-155-55-291t-150.5-233-231-153T844-16q-139 0-266 45l-39-84h-90zM330 717q0-178 59-322.5T551 164l543 1136q-117 74-250 74-146 0-263.5-83t-184-233.5T330 717zm1030 0q0 168-53 305.5T1159 1247L621 115q103-58 223-58 147 0 264.5 83.5T1293 375t67 342z"/><glyph unicode="Ù" horiz-adv-x="1536" d="M1280 532v902h82V543q0-253-153-406T791-16q-177 0-316.5 68t-220 196T174 543v891h205V532q0-112 38-203t103-148 148-87.5T844 63q88 0 165 28t138.5 83 97 147 35.5 211zM905 1569h-80l-381 342h218z"/><glyph unicode="Ú" horiz-adv-x="1536" d="M1280 532v902h82V543q0-253-153-406T791-16q-177 0-316.5 68t-220 196T174 543v891h205V532q0-112 38-203t103-148 148-87.5T844 63q88 0 165 28t138.5 83 97 147 35.5 211zM670 1569h-82l243 342h218z"/><glyph unicode="Û" horiz-adv-x="1536" d="M1280 532v902h82V543q0-253-153-406T791-16q-177 0-316.5 68t-220 196T174 543v891h205V532q0-112 38-203t103-148 148-87.5T844 63q88 0 165 28t138.5 83 97 147 35.5 211zM506 1569h-82l264 352h178l264-352h-79l-275 266z"/><glyph unicode="Ü" horiz-adv-x="1536" d="M1280 532v902h82V543q0-253-153-406T791-16q-177 0-316.5 68t-220 196T174 543v891h205V532q0-112 38-203t103-148 148-87.5T844 63q88 0 165 28t138.5 83 97 147 35.5 211zM451 1739q0 43 29.5 72.5T551 1841q43 0 72.5-29.5T653 1739q0-41-29.5-71t-72.5-30q-41 0-70.5 30t-29.5 71zm450 0q0 43 29.5 72.5t70.5 29.5q43 0 73-29.5t30-72.5q0-41-30-71t-73-30q-41 0-70.5 30t-29.5 71z"/><glyph unicode="Ý" horiz-adv-x="1298" d="M567 0v614L41 1434h242l438-670 438 670h98L772 688V0H567zm-6 1569h-80l244 342h217z"/><glyph unicode="Þ" horiz-adv-x="1304" d="M199 0v1434h204v-267h259q156 0 279-52t192-148 69-219q0-188-150-304T664 328H403V0H199zm411 1087H403V408h209q168 0 273.5 92T991 745q0 154-106 248t-275 94z"/><glyph unicode="ß" horiz-adv-x="1409" d="M551 748q0 52 14 94.5t37 71.5 50.5 54l55 50 50.5 52 37 66.5 14 88.5q0 103-60 170t-161 67q-97 0-156-69t-59-193V0H174v1153q0 184 101 291.5T569 1552q186 0 300-97t114-232q0-64-27-115t-65-86-76-69-65-79.5T723 772q0-24 5.5-43.5t14-34 26-29 33-24T847 619t52-21.5 64-24.5 71-28q152-61 222.5-124.5T1327 254q0-125-100-195.5T940-12q-195 0-299 78.5T532 293h187q0-111 61-174.5T950 55q88 0 144.5 41t56.5 123q0 76-60 117.5T852 449q-5 1-6 2-64 25-100.5 41.5t-79 43-64 53.5-36.5 67.5-15 91.5z"/><glyph unicode="à" horiz-adv-x="1167" d="M573 995q200 0 310-92.5T993 639V0H870l-49 133Q715-14 485-14q-160 0-265 70.5T115 264q0 77 36 134t102 91 150.5 50T592 555q102 0 203-16v96q0 287-224 287-105 0-174-61.5T328 684H150q0 149 117.5 230T573 995zM305 266q0-96 66.5-146T537 70q115 0 178 69t80 211v121q-90 12-152 12-157 0-247.5-52.5T305 266zm416 852h-80l-381 342h217z"/><glyph unicode="á" horiz-adv-x="1167" d="M573 995q200 0 310-92.5T993 639V0H870l-49 133Q715-14 485-14q-160 0-265 70.5T115 264q0 77 36 134t102 91 150.5 50T592 555q102 0 203-16v96q0 287-224 287-105 0-174-61.5T328 684H150q0 149 117.5 230T573 995zM305 266q0-96 66.5-146T537 70q115 0 178 69t80 211v121q-90 12-152 12-157 0-247.5-52.5T305 266zm201 852h-80l244 342h217z"/><glyph unicode="â" horiz-adv-x="1167" d="M573 995q200 0 310-92.5T993 639V0H870l-49 133Q715-14 485-14q-160 0-265 70.5T115 264q0 77 36 134t102 91 150.5 50T592 555q102 0 203-16v96q0 287-224 287-105 0-174-61.5T328 684H150q0 149 117.5 230T573 995zM305 266q0-96 66.5-146T537 70q115 0 178 69t80 211v121q-90 12-152 12-157 0-247.5-52.5T305 266zm-4 852h-82l264 352h179l264-352h-80l-275 266z"/><glyph unicode="ã" horiz-adv-x="1167" d="M573 995q200 0 310-92.5T993 639V0H870l-49 133Q715-14 485-14q-160 0-265 70.5T115 264q0 77 36 134t102 91 150.5 50T592 555q102 0 203-16v96q0 287-224 287-105 0-174-61.5T328 684H150q0 149 117.5 230T573 995zM305 266q0-96 66.5-146T537 70q115 0 178 69t80 211v121q-90 12-152 12-157 0-247.5-52.5T305 266zm139 1151q65 0 158.5-42t138.5-42q31 0 73 25.5t68 50.5l27 25v-78q-5-7-13.5-17.5t-34-38T812 1252t-55.5-38.5T700 1196q-58 0-158.5 43T403 1282q-35 0-76.5-27t-66.5-54l-24-27v77q5 7 13 18t32.5 39.5 48 50.5 55.5 40 59 18z"/><glyph unicode="ä" horiz-adv-x="1167" d="M573 995q200 0 310-92.5T993 639V0H870l-49 133Q715-14 485-14q-160 0-265 70.5T115 264q0 77 36 134t102 91 150.5 50T592 555q102 0 203-16v96q0 287-224 287-105 0-174-61.5T328 684H150q0 149 117.5 230T573 995zM305 266q0-96 66.5-146T537 70q115 0 178 69t80 211v121q-90 12-152 12-157 0-247.5-52.5T305 266zm-59 1022q0 43 29.5 73t70.5 30q43 0 73-30t30-73q0-41-30-70.5t-73-29.5q-41 0-70.5 29.5T246 1288zm450 0q0 43 30 73t71 30q43 0 72.5-30t29.5-73q0-41-29.5-70.5T797 1188q-41 0-71 29.5t-30 70.5z"/><glyph unicode="å" horiz-adv-x="1167" d="M573 995q200 0 310-92.5T993 639V0H870l-49 133Q715-14 485-14q-160 0-265 70.5T115 264q0 77 36 134t102 91 150.5 50T592 555q102 0 203-16v96q0 287-224 287-105 0-174-61.5T328 684H150q0 149 117.5 230T573 995zM305 266q0-96 66.5-146T537 70q115 0 178 69t80 211v121q-90 12-152 12-157 0-247.5-52.5T305 266zm60 1043q0 87 60.5 148t147.5 61q86 0 147.5-61.5T782 1309q0-87-61-148t-148-61q-88 0-148 60.5T365 1309zm86 0q0-53 35-88t87-35q51 0 86 35.5t35 87.5q0 51-35 86t-86 35q-52 0-87-35t-35-86z"/><glyph unicode="æ" horiz-adv-x="1888" d="M604 995q233 0 309-143 145 145 369 145 201 0 337.5-118.5T1759 553v-84H979q4-185 93.5-300.5T1296 53q103 0 181.5 69.5T1581 299h180q-26-142-159-227.5T1290-14q-147 0-262 60T848 213Q801 105 705.5 45.5T471-14q-156 0-255 72t-99 200q0 60 23 107.5t61.5 79 93 54 112.5 34 125 16 125.5 3T776 545q2 43 21 108-6 132-63.5 200.5T573 922q-102 0-168.5-66.5T338 664l-178-11q0 113 62.5 192.5T383 960t221 35zm680-67q-118 0-204-103.5T981 553h600q-3 157-95 266t-202 109zM307 252q0-87 55.5-134.5T516 70q242 0 266 313-8 62-8 94-53 1-114.5 2t-124-12.5-113.5-36-83-68.5-32-110z"/><glyph unicode="ç" horiz-adv-x="1183" d="M301 492q0-194 90-316.5T616 53q103 0 178 66.5T893 317h180q-17-100-79-173T842 32.5 643-12l-8-84q63 0 107-40t44-104q0-68-51.5-104.5T610-381q-82 0-127 40t-45 95l80 2q0-3 1-7t6.5-15 14-19 25-15 37.5-7q35 0 55.5 20t20.5 54q0 48-38 69t-93 21l14 131Q355 2 225.5 142T96 492q0 221 142 363t362 142q117 0 217-39.5T985 842t86-176H893q-25 120-101 191t-178 71q-134 0-223.5-122T301 492z"/><glyph unicode="è" d="M604 997q131 0 240-50t177.5-152.5T1092 553v-84H301q4-186 94.5-301T621 53q101 0 180 69.5T905 299h189q-16-94-87-166T832.5 23.5 612-14q-230 0-372 141T98 489q0 223 141.5 365.5T604 997zm2-69q-116 0-202-104T303 553h602q-3 157-95 266T606 928zm146 190h-82l-379 342h217z"/><glyph unicode="é" d="M604 997q131 0 240-50t177.5-152.5T1092 553v-84H301q4-186 94.5-301T621 53q101 0 180 69.5T905 299h189q-16-94-87-166T832.5 23.5 612-14q-230 0-372 141T98 489q0 223 141.5 365.5T604 997zm2-69q-116 0-202-104T303 553h602q-3 157-95 266T606 928zm-71 190h-80l243 342h217z"/><glyph unicode="ê" d="M604 997q131 0 240-50t177.5-152.5T1092 553v-84H301q4-186 94.5-301T621 53q101 0 180 69.5T905 299h189q-16-94-87-166T832.5 23.5 612-14q-230 0-372 141T98 489q0 223 141.5 365.5T604 997zm2-69q-116 0-202-104T303 553h602q-3 157-95 266T606 928zm-266 190h-80l264 352h178l265-352h-82l-273 266z"/><glyph unicode="ë" d="M604 997q98 0 186-30t155.5-85.5 107-142.5 39.5-194v-76H301q4-186 94.5-301T621 53q101 0 180 69.5T905 299h189q-16-94-87-166T832.5 23.5 612-14q-230 0-372 141T98 489q0 223 141.5 365.5T604 997zm2-69q-116 0-202-104T303 553h602q-3 157-95 266T606 928zm-321 360q0 42 30.5 72.5T387 1391t71.5-30.5T489 1288q0-41-30.5-70.5T387 1188t-71.5 29.5T285 1288zm450 0q0 42 30.5 72.5T838 1391t72-30.5 30-72.5q0-41-30.5-70.5T838 1188q-42 0-72.5 29.5T735 1288z"/><glyph unicode="ì" horiz-adv-x="546" d="M174 0v983h199V0H174zm248 1118h-80l-381 342h217z"/><glyph unicode="í" horiz-adv-x="546" d="M174 0v983h199V0H174zm33 1118h-82l244 342h217z"/><glyph unicode="î" horiz-adv-x="546" d="M174 0v983h199V0H174zM2 1118h-82l264 352h178l265-352h-80l-275 266z"/><glyph unicode="ï" horiz-adv-x="546" d="M-53 1288q0 43 29.5 73t70.5 30q43 0 73-30t30-73q0-41-30-70.5T47 1188q-41 0-70.5 29.5T-53 1288zm450 0q0 43 30 73t71 30q43 0 72.5-30t29.5-73q0-41-29.5-70.5T498 1188q-41 0-71 29.5t-30 70.5zM174 0v983h199V0H174z"/><glyph unicode="ð" horiz-adv-x="1224" d="m485 1210 136 136q-68 50-141.5 84.5T366 1474l-40 9 61 67q16-3 45-9.5t110.5-39.5 153.5-80l129 129 58-57-119-119q344-279 344-825 0-138-37.5-246T966 126 808 21.5 608-14q-228 0-370 141T96 489q0 222 142 365t362 143q104 0 192-45t140-123h10q-62 289-258 465l-141-141zM299 492q0-195 85-317T602 53q132 0 216.5 122T903 492q0 192-85 314T602 928q-133 0-218-120.5T299 492z"/><glyph unicode="ñ" horiz-adv-x="1269" d="M174 0v983h121l65-162q65 84 161 130t210 46q166 0 265.5-94.5T1096 653V0H895v633q0 136-56.5 213.5T680 924q-111 0-198.5-92T373 582V0H174zm332 1417q65 0 158.5-42t138.5-42q31 0 73 25.5t68 50.5l27 25v-78q-5-7-13.5-17.5t-34-38T874 1252t-55.5-38.5T762 1196q-58 0-158.5 43T465 1282q-35 0-77-27t-66-54l-25-27v77q5 7 13 18t32.5 39.5T391 1359t56 40 59 18z"/><glyph unicode="ò" d="M96 492q0 221 142.5 363T602 997q220 0 363-144.5T1108 489q0-220-142.5-361.5T602-14 238.5 128.5 96 492zm205 0q0-195 84.5-317T602 53q133 0 218 122t85 317q0 193-85 314.5T602 928q-132 0-216.5-120.5T301 492zm451 626h-82l-379 342h217z"/><glyph unicode="ó" d="M96 492q0 221 142.5 363T602 997q220 0 363-144.5T1108 489q0-220-142.5-361.5T602-14 238.5 128.5 96 492zm205 0q0-195 84.5-317T602 53q133 0 218 122t85 317q0 193-85 314.5T602 928q-132 0-216.5-120.5T301 492zm234 626h-80l243 342h217z"/><glyph unicode="ô" d="M96 492q0 221 142.5 363T602 997q220 0 363-144.5T1108 489q0-220-142.5-361.5T602-14 238.5 128.5 96 492zm205 0q0-195 84.5-317T602 53q133 0 218 122t85 317q0 193-85 314.5T602 928q-132 0-216.5-120.5T301 492zm29 626h-80l264 352h178l264-352h-82l-272 266z"/><glyph unicode="õ" d="M96 492q0 221 142.5 363T602 997q220 0 363-144.5T1108 489q0-220-142.5-361.5T602-14 238.5 128.5 96 492zm205 0q0-195 84.5-317T602 53q133 0 218 122t85 317q0 193-85 314.5T602 928q-132 0-216.5-120.5T301 492zm174 925q65 0 157.5-42t137.5-42q32 0 74.5 25.5T914 1409l26 25v-78q-5-7-13.5-17.5t-34.5-38-50.5-48.5-56-38.5T729 1196q-58 0-157.5 43T434 1282q-22 0-48-11t-46.5-27-38.5-32-27-27l-10-11v77q5 7 13 18t33 39.5 49 50.5 56.5 40 59.5 18z"/><glyph unicode="ö" d="M96 492q0 221 142.5 363T602 997q220 0 363-144.5T1108 489q0-220-142.5-361.5T602-14 238.5 128.5 96 492zm205 0q0-195 84.5-317T602 53q133 0 218 122t85 317q0 193-85 314.5T602 928q-132 0-216.5-120.5T301 492zm-27 796q0 42 30.5 72.5T377 1391q41 0 71.5-30.5T479 1288q0-41-30.5-70.5T377 1188q-42 0-72.5 29.5T274 1288zm451 0q0 42 30.5 72.5T827 1391q42 0 72.5-30.5T930 1288q0-41-30.5-70.5T827 1188q-41 0-71.5 29.5T725 1288z"/><glyph unicode="÷" horiz-adv-x="1013" d="M885 594H127v82h758v-82zM418 317q0 40 26.5 67.5T508 412q38 0 65-27.5t27-67.5q0-37-27-64.5T508 225q-37 0-63.5 27.5T418 317zm0 633q0 38 26.5 66t63.5 28q38 0 65-28t27-66-27-65-65-27q-37 0-63.5 27T418 950z"/><glyph unicode="ø" d="m297-61 49 108q-117 62-183.5 179T96 492q0 221 142.5 363T602 997q86 0 172-26l35 76h92l-51-109q120-64 189-182.5t69-266.5q0-220-142.5-361.5T602-14q-94 0-180 28l-35-75h-90zm612 553q0 218-108 339L459 96q64-43 143-43 134 0 220.5 122T909 492zm-614 0q0-217 100-338l340 735q-61 39-133 39-135 0-221-120.5T295 492z"/><glyph unicode="ù" horiz-adv-x="1269" d="M1096 983V0H973l-66 160Q842 77 747 31.5T539-14q-167 0-266 94t-99 250v653h199V350q0-137 56.5-214T590 59q108 0 194.5 88T895 387v596h201zm-314 135h-80l-380 342h217z"/><glyph unicode="ú" horiz-adv-x="1269" d="M1096 983V0H973l-66 160Q842 77 747 31.5T539-14q-167 0-266 94t-99 250v653h199V350q0-137 56.5-214T590 59q108 0 194.5 88T895 387v596h201zm-529 135h-82l244 342h217z"/><glyph unicode="û" horiz-adv-x="1269" d="M1096 983V0H973l-66 160Q842 77 747 31.5T539-14q-167 0-266 94t-99 250v653h199V350q0-137 56.5-214T590 59q108 0 194.5 88T895 387v596h201zm-734 135h-81l264 352h178l264-352h-80l-274 266z"/><glyph unicode="ü" horiz-adv-x="1269" d="M1096 983V0H973l-66 160Q842 77 747 31.5T539-14q-167 0-266 94t-99 250v653h199V350q0-137 56.5-214T590 59q108 0 194.5 88T895 387v596h201zm-338 305q0 43 29.5 73t70.5 30q43 0 73-30t30-73q0-41-30-70.5t-73-29.5q-41 0-70.5 29.5T758 1288zm-451 0q0 43 30 73t71 30q43 0 72.5-30t29.5-73q0-41-29.5-70.5T408 1188q-41 0-71 29.5t-30 70.5z"/><glyph unicode="ý" horiz-adv-x="1132" d="m283 983 346-747 321 747h115L432-512H256L522 23 57 983h226zm235 135h-80l244 342h217z"/><glyph unicode="þ" horiz-adv-x="1255" d="M174-512v1946h199V862q116 135 309 135 207 0 342-147t135-363q0-217-135-359T682-14q-196 0-309 135v-633H174zM367 492q0-198 76.5-315.5T651 59q135 0 220 118.5T956 489t-86 314-219 121q-132 0-208-117t-76-315z"/><glyph unicode="ÿ" horiz-adv-x="1132" d="m283 983 346-747 321 747h115L432-512H256L522 23 57 983h226zm426 305q0 42 30.5 72.5T811 1391t71.5-30.5T913 1288q0-41-30.5-70.5T811 1188t-71.5 29.5T709 1288zm-451 0q0 42 30 72.5t72 30.5 72.5-30.5T463 1288q0-41-30.5-70.5T360 1188q-41 0-71.5 29.5T258 1288z"/><glyph unicode="Œ" horiz-adv-x="2185" d="M1083 0v33q-92-49-225-49-151 0-285 56T343.5 192.5 192.5 425 137 715q0 155 55.5 291.5t151.5 233T572.5 1392t281.5 56q133 0 229-47v33h963v-80h-758V772h697v-80h-697V80h778V0h-983zm0 111v1210q-100 53-219 53-146 0-263.5-83t-184-233.5T350 717q0-289 146-474.5T864 57q116 0 219 54z"/><glyph unicode="œ" horiz-adv-x="2017" d="M96 492q0 221 142.5 363T602 997q132 0 235.5-56T1006 786q63 100 167 155.5t238 55.5q131 0 237-50t172-152.5 68-241.5v-84h-780q4-186 94-301t225-115q102 0 181 69.5T1712 299h178q-16-94-84.5-166t-169-109.5T1419-14q-140 0-245 54t-168 153Q942 94 838.5 40T602-14q-221 0-363.5 142.5T96 492zm205 0q0-195 84.5-317T602 53q133 0 218 122t85 317q0 193-85 314.5T602 928q-132 0-216.5-120.5T301 492zm1112 436q-116 0-202-104t-101-271h602q-3 157-95 266t-204 109z"/><glyph unicode="Ÿ" horiz-adv-x="1298" d="M567 0v614L41 1434h242l438-670 438 670h98L772 688V0H567zM342 1739q0 43 29.5 72.5T442 1841q43 0 73-29.5t30-72.5q0-41-30-71t-73-30q-41 0-70.5 30t-29.5 71zm451 0q0 43 29.5 72.5T893 1841q43 0 72.5-29.5T995 1739q0-41-29.5-71t-72.5-30q-41 0-70.5 30t-29.5 71z"/><glyph unicode="ˆ" horiz-adv-x="890" d="M172 1118H92l264 352h179l264-352h-82l-273 266z"/><glyph unicode="˜" horiz-adv-x="858" d="M301 1417q65 0 158.5-42t138.5-42q31 0 73 25.5t69 50.5l26 25v-78q-5-7-13.5-17.5t-34-38T669 1252t-55.5-38.5T557 1196q-58 0-158.5 43T260 1282q-35 0-77-27t-67-54l-24-27v77q5 7 13 18t32.5 39.5T186 1359t56 40 59 18z"/><glyph horiz-adv-x="984"/><glyph horiz-adv-x="1968"/><glyph horiz-adv-x="984"/><glyph horiz-adv-x="1968"/><glyph horiz-adv-x="656"/><glyph horiz-adv-x="492"/><glyph horiz-adv-x="328"/><glyph horiz-adv-x="328"/><glyph horiz-adv-x="246"/><glyph horiz-adv-x="393"/><glyph horiz-adv-x="109"/><glyph unicode="‐" horiz-adv-x="716" d="M614 506H102v82h512v-82z"/><glyph unicode="‑" horiz-adv-x="716" d="M614 506H102v82h512v-82z"/><glyph unicode="‒" horiz-adv-x="716" d="M614 506H102v82h512v-82z"/><glyph unicode="–" horiz-adv-x="1024" d="M881 532H143v82h738v-82z"/><glyph unicode="—" horiz-adv-x="2048" d="M1905 532H143v82h1762v-82z"/><glyph unicode="‘" horiz-adv-x="432" d="M242 1536h112l-69-465H88z"/><glyph unicode="’" horiz-adv-x="432" d="M168 1071H57l70 465h197z"/><glyph unicode="‚" horiz-adv-x="432" d="M168-281H57l70 465h197z"/><glyph unicode="“" horiz-adv-x="733" d="M539 1536h112l-69-465H385zm-297 0h112l-69-465H88z"/><glyph unicode="”" horiz-adv-x="733" d="M168 1071H57l70 465h197zm297 0H354l70 465h197z"/><glyph unicode="„" horiz-adv-x="733" d="M168-281H57l70 465h197zm297 0H354l70 465h197z"/><glyph unicode="•" horiz-adv-x="544" d="M82 614q0 79 55 135t133 56q80 0 136.5-56T463 614q0-78-57-134t-136-56q-78 0-133 56T82 614z"/><glyph unicode="…" horiz-adv-x="1298" d="M92 111q0 53 36 89t89 36 89-36 36-89-36-89-89-36-89 36-36 89zm432 0q0 52 37 88.5t88 36.5q53 0 90-36.5t37-88.5-37-88.5T649-14q-51 0-88 36.5T524 111zm434 0q0 53 36 89t89 36 89-36 36-89-36-89-89-36-89 36-36 89z"/><glyph horiz-adv-x="393"/><glyph unicode="‹" horiz-adv-x="589" d="M510 283v-80L86 522v66l424 321v-82L231 555z"/><glyph unicode="›" horiz-adv-x="589" d="M76 827v82l424-321v-66L76 203v80l278 272z"/><glyph horiz-adv-x="492"/><glyph unicode="€" horiz-adv-x="1705" d="M1151 514H498q42-204 166-330.5T981 57q170 0 285.5 95.5T1411 428h205q-43-221-208.5-332.5T995-16q-293 0-472 144.5T289 514H96v82h178q-8 55-8 125 0 34 4 100H96v84h187q51 248 230 395.5T977 1448q118 0 221-27t187-81 139.5-142 72.5-203l-204 2q-22 175-134.5 276T969 1374q-103 0-186.5-37T642 1234t-94-148-54-181h657v-84H481q-4-70-4-102 0-65 6-123h668v-82z"/><glyph unicode="™" horiz-adv-x="1705" d="m979 1434 238-523 219 512v11h168V717h-168v555l-226-533h-94l-252 535V717h-61v717h176zm-938-60v60h649v-60H451V717H281v657H41z"/><glyph unicode="◼" horiz-adv-x="983" d="M0 983h983V0H0v983z"/></font>
</defs>
</svg>
